<?xml version="1.0" encoding="UTF-8"?>
<svg width="46px" height="36px" viewBox="0 0 46 36" version="1.1" xmlns="http://www.w3.org/2000/svg" xmlns:xlink="http://www.w3.org/1999/xlink">
    <!-- Generator: Sketch 52.3 (67297) - http://www.bohemiancoding.com/sketch -->
    <title>logo</title>
    <desc>Created with Sketch.</desc>
    <g id="Pages" stroke="none" stroke-width="1" fill="none" fill-rule="evenodd">
        <g id="Top_未ログイン" transform="translate(-40.000000, -12.000000)">
            <g id="header">
                <g id="logo" style="mix-blend-mode: overlay;" transform="translate(40.000000, 12.000000)">
                    <g id="Group-3" transform="translate(0.000000, 0.101752)" fill="#231916">
                        <path d="M44.7599009,0.903019835 C44.0099703,0.352160331 42.7541849,0.0579123967 40.99327,0.0579123967 L32.2732953,0.0469041322 C30.5116549,0.0469041322 29.2563047,0.327614876 28.5063741,0.888292562 C27.7567338,1.44911901 27.3817685,2.18220992 27.3817685,3.08726777 C27.3817685,3.9927719 27.7567338,4.72556529 28.5063741,5.2865405 C29.2563047,5.84721818 30.5116549,6.12792893 32.2732953,6.12792893 L34.0307274,6.12792893 L34.0307274,11.4215653 L34.0307274,12.1710198 C28.0957117,4.7731686 19.1013331,0.0469041322 9.04997035,0.0469041322 L8.51161073,0.0595487603 L4.89139621,0.0469041322 C3.12975584,0.0469041322 1.87455079,0.327614876 1.1247653,0.888292562 C0.374979811,1.44911901 1.4511041e-05,2.18220992 1.4511041e-05,3.08726777 C1.4511041e-05,3.9927719 0.374979811,4.72556529 1.1247653,5.2865405 C1.87455079,5.84721818 3.12975584,6.12792893 4.89139621,6.12792893 L6.03399558,6.12792893 L6.03399558,29.8003091 C4.48639306,29.8003091 3.3439388,30.0856314 2.60634259,30.656276 C1.86845615,31.2269207 1.49958549,31.9451355 1.49958549,32.8106231 C1.49958549,33.7165736 1.87455079,34.4493669 2.62448139,35.0097471 C3.37397666,35.5711686 4.6291817,35.8512843 6.39096719,35.8512843 L15.1107968,35.8512843 C16.8720019,35.8512843 18.1277874,35.5711686 18.8775729,35.0097471 C19.6272132,34.4493669 20.0021785,33.7259455 20.0021785,32.8399289 C20.0021785,31.9354661 19.6272132,31.202524 18.8775729,30.6414 C18.1277874,30.0807223 16.8720019,29.8003091 15.1107968,29.8003091 L13.3530744,29.8003091 L13.3530744,23.3310198 L13.3530744,14.1801769 C21.7880524,16.1857636 28.0954215,23.9477802 28.0954215,33.1962099 L28.0954215,33.748557 L28.0954215,35.8512843 L34.1382543,35.8512843 L35.3489104,35.8512843 L41.3857937,35.8512843 L41.3857937,33.748557 L41.3857937,33.1962099 L41.3857937,6.12792893 C42.9085823,6.12792893 44.039718,5.84245785 44.7774593,5.2715157 C45.5152006,4.70087107 45.8845066,3.97298678 45.8845066,3.08726777 C45.8845066,2.18220992 45.5095413,1.45417686 44.7599009,0.903019835" id="Fill-1"></path>
                    </g>
                    <path d="M9.04998486,1.9335124 C8.34707003,1.9335124 7.77518991,2.51992562 7.77518991,3.24081818 C7.77518991,3.9618595 8.34707003,4.54797521 9.04998486,4.54797521 C24.5138208,4.54797521 37.0946032,17.4451983 37.0946032,33.2979917 C37.0946032,34.0188843 37.6664833,34.6054463 38.3696883,34.6054463 C39.0726032,34.6054463 39.6441931,34.0188843 39.6441931,33.2979917 C39.6441931,16.003562 25.9199407,1.9335124 9.04998486,1.9335124" id="Fill-4" fill="#ED7647"></path>
                    <path d="M9.04998486,5.65368099 C8.34707003,5.65368099 7.77518991,6.24009421 7.77518991,6.96113554 C7.77518991,7.6820281 8.34707003,8.26844132 9.04998486,8.26844132 C22.5128934,8.26844132 33.465682,19.4965736 33.465682,33.297962 C33.465682,34.0188545 34.0375621,34.6054165 34.7407672,34.6054165 C35.443682,34.6054165 36.0155621,34.0188545 36.0155621,33.297962 C36.0155621,18.0547884 23.9190132,5.65368099 9.04998486,5.65368099" id="Fill-6" fill="#FFE46A"></path>
                    <path d="M9.05027508,9.37442975 C8.34765047,9.37442975 7.77548013,9.96099174 7.77548013,10.6818843 C7.77548013,11.4024793 8.34765047,11.988595 9.05027508,11.988595 C20.5118208,11.988595 29.8364707,21.5479339 29.8364707,33.2979174 C29.8364707,34.0188099 30.4084959,34.6053719 31.1112656,34.6053719 C31.8141804,34.6053719 32.3863508,34.0188099 32.3863508,33.2979174 C32.3863508,20.1067438 21.9179407,9.37442975 9.05027508,9.37442975" id="Fill-8" fill="#48A9DF"></path>
                </g>
            </g>
        </g>
    </g>
</svg>